<?xml version="1.0" encoding="utf-8"?>
<!-- Generator: Adobe Illustrator 23.0.1, SVG Export Plug-In . SVG Version: 6.00 Build 0)  -->
<svg version="1.1" id="Calque_1" xmlns="http://www.w3.org/2000/svg" xmlns:xlink="http://www.w3.org/1999/xlink" x="0px" y="0px"
	 viewBox="0 0 595.28 841.89" style="enable-background:new 0 0 595.28 841.89;" xml:space="preserve">
<style type="text/css">
	.st0{fill:#B2B2B2;}
	.st1{fill:#3C3C3B;}
	.st2{fill:#634E42;}
	.st3{font-family:'MyriadPro-Regular';}
	.st4{font-size:260.6849px;}
	.st5{fill:#7B6A58;}
	.st6{font-size:254.614px;}
	.st7{fill:none;stroke:#E30613;stroke-miterlimit:10;}
</style>
<g>
	<g>
		<path class="st0" d="M0.98,428.62c80.71,43.45,161.41,86.89,242.12,130.34c-7.02,11.08-14.03,22.16-21.05,33.25
			C144.73,547.36,67.42,502.52-9.89,457.69C-6.27,448-2.65,438.31,0.98,428.62z"/>
		<path class="st0" d="M203.68,270.39c-71.87,50.33-143.74,100.67-215.6,151v34.47c0.88,0.95,1.76,1.9,2.64,2.85
			c78.03-51.04,156.06-102.08,234.08-153.12C217.76,293.86,210.72,282.13,203.68,270.39z"/>
	</g>
	<g>
		<path class="st1" d="M591.8,451.9c-75.31-52.25-150.62-104.49-225.93-156.74c8.22-10.22,16.44-20.45,24.65-30.67
			c71.78,53.25,143.56,106.49,215.35,159.74C601.18,433.45,596.49,442.67,591.8,451.9z"/>
		<path class="st1" d="M372.59,586.32c77.07-41.93,154.15-83.87,231.22-125.8l3.88-34.25c-0.77-1.04-1.54-2.09-2.3-3.13
			c-83.27,41.94-166.55,83.89-249.82,125.83C361.23,561.42,366.91,573.87,372.59,586.32z"/>
	</g>
	<rect x="282.37" y="289.24" transform="matrix(0.9308 0.3656 -0.3656 0.9308 173.434 -79.4086)" width="28.1" height="258.1"/>
	<text transform="matrix(0.9991 0 0 1 166.7243 505.3069)" class="st2 st3 st4">J</text>
	<text transform="matrix(1 0 0 1 335.6867 523.9847)" class="st5 st3 st6">P</text>
	<path class="st7" d="M66.4,645.72"/>
	<path class="st7" d="M124.48,613.2c0,0,12.02-20.34,29.21-0.55c0,0,9.61,9.8,23.11-1.11c0,0,11.28-16.27,22.74-1.66
		c0,0,10.72,12.57,23.48-0.74c0,0,8.32-15.9,18.49-0.74"/>
	<path class="st7" d="M358.51,602.93c0,0-11.91,20.4-29.21,0.71c0,0-9.67-9.75-23.11,1.23c0,0-11.19,16.33-22.73,1.79
		c0,0-10.79-12.51-23.48,0.87c0,0-8.23,15.95-18.49,0.84"/>
	<path class="st7" d="M355.93,606.55c0,0,12.02-20.34,29.21-0.55c0,0,9.61,9.8,23.11-1.11c0,0,11.28-16.27,22.74-1.66
		c0,0,10.72,12.57,23.48-0.74c0,0,8.32-15.9,18.49-0.74"/>
</g>
</svg>
