<?xml version="1.0" encoding="utf-8"?>
<!-- Generator: Adobe Illustrator 23.0.1, SVG Export Plug-In . SVG Version: 6.00 Build 0)  -->
<svg version="1.1" id="Capa_1" xmlns="http://www.w3.org/2000/svg" xmlns:xlink="http://www.w3.org/1999/xlink" x="0px" y="0px"
	 viewBox="0 0 512 512" style="enable-background:new 0 0 512 512;" xml:space="preserve">
<style type="text/css">
	.st0{fill:#FFFFFF;}
</style>
<g>
	<g>
		<path class="st0" d="M481.3,30.6c-40.8-40.8-107.7-40.8-148.5,0L179.2,184.2c0,0,0,0,0,0L30.7,332.7
			c-40.9,40.9-40.9,107.6,0,148.5c40.9,40.9,107.6,40.9,148.5,0l148.5-148.5c0,0,0,0,0,0l153.5-153.5
			C522.2,138.2,522.2,71.6,481.3,30.6z M158,460c-29.3,29.2-76.8,29.2-106.1,0c-29.2-29.2-29.2-76.8,0-106.1l148.5-148.5
			c33.5-33.5,89.3-28,115.6,11.7l-22,22c-13.4-28.1-50.6-34.3-72.5-12.4L73.1,375.1c-17.5,17.5-17.5,46.1,0,63.7
			c17.5,17.5,46.1,17.5,63.7,0l81.4-81.4c11.2,4,23.5,6.2,36.4,6L158,460z M264.1,269.1c-5.8,5.9-15.4,5.8-21.2,0
			c-5.9-5.9-5.9-15.4,0-21.2c5.9-5.9,15.4-5.8,21.2,0C270,253.7,270,263.2,264.1,269.1z M190.6,342.6l-75,75
			c-5.8,5.9-15.4,5.9-21.2,0c-5.8-5.9-5.8-15.4,0-21.2l75-75C175.4,329.3,182.3,336.4,190.6,342.6z M460.1,157.9L306.5,311.5
			c0,0,0,0,0,0l0,0c-33.5,33.5-89.3,28-115.6-11.7l22-22c13.4,28,50.6,34.3,72.5,12.4c0,0,0,0,0,0s0,0,0,0l153.5-153.5
			c17.5-17.5,17.5-46.1,0-63.7s-46.1-17.5-63.7,0l-86.4,86.4c-11.6-4.1-23.8-6.2-36.4-6L354,51.9c29-29,77-29.1,106.1,0
			C489.3,81.1,489.3,128.7,460.1,157.9z M316.4,174.3l80-80c5.9-5.8,15.4-5.8,21.2,0c5.9,5.8,5.9,15.4,0,21.2l-80,80
			C331.7,187.6,324.7,180.6,316.4,174.3z"/>
	</g>
</g>
</svg>
