<?xml version="1.0" encoding="utf-8"?>
<!-- Generator: Adobe Illustrator 23.0.1, SVG Export Plug-In . SVG Version: 6.00 Build 0)  -->
<svg version="1.1" id="Capa_1" xmlns="http://www.w3.org/2000/svg" xmlns:xlink="http://www.w3.org/1999/xlink" x="0px" y="0px"
	 viewBox="0 0 512 512" style="enable-background:new 0 0 512 512;" xml:space="preserve">
<style type="text/css">
	.st0{fill:#FFFFFF;}
</style>
<g>
	<g>
		<g>
			<path class="st0" d="M384,0H128c-14.1,0-25.6,11.5-25.6,25.6v460.8c0,14.1,11.5,25.6,25.6,25.6h256c14.1,0,25.6-11.5,25.6-25.6
				V25.6C409.6,11.5,398.1,0,384,0z M392.5,68.3H196.3c-4.7,0-8.5,3.8-8.5,8.5s3.8,8.5,8.5,8.5h196.3v332.8h-25.6
				c-4.7,0-8.5,3.8-8.5,8.5s3.8,8.5,8.5,8.5h25.6v51.2c0,4.7-3.8,8.5-8.5,8.5H128c-4.7,0-8.5-3.8-8.5-8.5v-51.2h196.3
				c4.7,0,8.5-3.8,8.5-8.5s-3.8-8.5-8.5-8.5H119.5V85.3h25.6c4.7,0,8.5-3.8,8.5-8.5s-3.8-8.5-8.5-8.5h-25.6V25.6
				c0-4.7,3.8-8.5,8.5-8.5h256c4.7,0,8.5,3.8,8.5,8.5V68.3z"/>
			<path class="st0" d="M264.5,460.8h-17.1c-4.7,0-8.5,3.8-8.5,8.5s3.8,8.5,8.5,8.5h17.1c4.7,0,8.5-3.8,8.5-8.5
				S269.2,460.8,264.5,460.8z"/>
		</g>
	</g>
</g>
</svg>
