<?xml version="1.0" encoding="utf-8"?>
<!-- Generator: Adobe Illustrator 23.0.1, SVG Export Plug-In . SVG Version: 6.00 Build 0)  -->
<svg version="1.1" id="Capa_1" xmlns="http://www.w3.org/2000/svg" xmlns:xlink="http://www.w3.org/1999/xlink" x="0px" y="0px"
	 viewBox="0 0 512 512" style="enable-background:new 0 0 512 512;" xml:space="preserve">
<style type="text/css">
	.st0{fill:#FFFFFF;}
</style>
<g>
	<g>
		<path class="st0" d="M255,0C114.1,0,0,114,0,255c0,139.9,113,257,255,257c140.6,0,257-115.9,257-257C512,112.9,394.7,0,255,0z
			 M255,482.2c-124.1,0-225.2-102-225.2-227.2C29.8,130.9,130.9,29.8,255,29.8c125.2,0,227.2,101.1,227.2,225.2
			C482.2,380.2,380.2,482.2,255,482.2z"/>
	</g>
</g>
<g>
	<g>
		<path class="st0" d="M255,90c-91,0-165,74-165,165c0,91.3,73.9,167,165,167c36.9,0,74.2-12.4,102.3-34c6.6-5,7.8-14.5,2.8-21
			s-14.5-7.8-21-2.8c-23,17.7-53.7,28-84.1,28c-74.4,0-135-61.7-135-137.2c0-74.4,60.6-135.2,135-135.2c75.5,0,137,60.8,137,135.2
			v15c0,16.5-13.5,30-30,30s-30-13.5-30-30c0-7.4,0-67.2,0-75c0-8.3-6.7-15-15-15s-15,6.7-15,15v1c-13.5-10.3-29.9-16-47-16
			c-41.4,0-75,33.6-75,75s33.6,75,75,75c22.4,0,43.1-9.6,57.7-25.8c10.8,15.6,28.9,25.8,49.3,25.8c33.1,0,60-26.9,60-60v-15
			C422,163.7,346.2,90,255,90z M255,300.2c-24.8,0-45-20.4-45-45.2s20.2-45.2,45-45.2c25.5,0,47,20.8,47,45.2S280.5,300.2,255,300.2
			z"/>
	</g>
</g>
</svg>
