<?xml version="1.0" encoding="utf-8"?>
<!-- Generator: Adobe Illustrator 23.0.1, SVG Export Plug-In . SVG Version: 6.00 Build 0)  -->
<svg version="1.1" id="Calque_1" xmlns="http://www.w3.org/2000/svg" xmlns:xlink="http://www.w3.org/1999/xlink" x="0px" y="0px"
	 viewBox="0 0 595.28 841.89" style="enable-background:new 0 0 595.28 841.89;" xml:space="preserve">
<style type="text/css">
	.st0{clip-path:url(#SVGID_2_);}
</style>
<g>
	<path d="M100.85,353.07c1.46,1.46,3.37,2.19,5.29,2.19c1.91,0,3.83-0.73,5.29-2.19c2.92-2.92,2.92-7.66,0-10.58l-18.16-18.16
		l18.16-18.16c2.92-2.93,2.92-7.66,0-10.58c-2.92-2.92-7.66-2.92-10.57,0L77.4,319.05c-1.4,1.4-2.19,3.31-2.19,5.29
		c0,1.99,0.79,3.89,2.19,5.29L100.85,353.07z M100.85,353.07"/>
	<path d="M175.06,324.33l-18.16,18.16c-2.92,2.92-2.92,7.66,0,10.58c1.46,1.46,3.37,2.19,5.28,2.19s3.83-0.73,5.29-2.19l23.45-23.45
		c2.92-2.92,2.92-7.66,0-10.57l-23.45-23.45c-2.92-2.92-7.65-2.92-10.57,0c-2.93,2.92-2.93,7.66,0,10.58L175.06,324.33z
		 M175.06,324.33"/>
	<path d="M123.01,354.74c0.9,0.35,1.83,0.52,2.73,0.52c2.99,0,5.81-1.8,6.97-4.75l18.42-46.89c1.52-3.84-0.38-8.18-4.22-9.7
		c-3.84-1.51-8.18,0.38-9.69,4.23l-18.42,46.89C117.28,348.89,119.17,353.23,123.01,354.74L123.01,354.74z M123.01,354.74"/>
	<path d="M86.92,399.14h50.38c4.13,0,7.48-3.35,7.48-7.48c0-4.13-3.35-7.48-7.48-7.48H86.92c-4.13,0-7.48,3.35-7.48,7.48
		C79.44,395.79,82.79,399.14,86.92,399.14L86.92,399.14z M86.92,399.14"/>
	<path d="M253.34,384.18h-88.57c-4.13,0-7.48,3.35-7.48,7.48c0,4.13,3.35,7.48,7.48,7.48h88.57c4.13,0,7.48-3.35,7.48-7.48
		C260.82,387.53,257.47,384.18,253.34,384.18L253.34,384.18z M253.34,384.18"/>
	<path d="M86.92,430.68h21.46c4.13,0,7.48-3.35,7.48-7.48c0-4.13-3.35-7.48-7.48-7.48H86.92c-4.13,0-7.48,3.35-7.48,7.48
		C79.44,427.33,82.79,430.68,86.92,430.68L86.92,430.68z M86.92,430.68"/>
	<path d="M225.98,415.72c-4.13,0-7.48,3.35-7.48,7.48c0,4.13,3.34,7.48,7.48,7.48h13.07c4.13,0,7.48-3.35,7.48-7.48
		c0-4.13-3.35-7.48-7.48-7.48H225.98z M225.98,415.72"/>
	<path d="M206.3,423.2c0-4.13-3.35-7.48-7.48-7.48h-64.2c-4.13,0-7.48,3.35-7.48,7.48c0,4.13,3.35,7.48,7.48,7.48h64.2
		C202.95,430.68,206.3,427.33,206.3,423.2L206.3,423.2z M206.3,423.2"/>
	<path d="M255.29,423.2c0,4.13,3.35,7.48,7.48,7.48h24.48c4.13,0,7.48-3.35,7.48-7.48c0-4.13-3.35-7.48-7.48-7.48h-24.48
		C258.64,415.72,255.29,419.07,255.29,423.2L255.29,423.2z M255.29,423.2"/>
	<path d="M214.56,330.33h25.82c4.13,0,7.48-3.35,7.48-7.48c0-4.13-3.35-7.48-7.48-7.48h-25.82c-4.13,0-7.49,3.35-7.49,7.48
		C207.07,326.98,210.43,330.33,214.56,330.33L214.56,330.33z M214.56,330.33"/>
	<path d="M269.3,330.33h157.55c4.13,0,7.48-3.35,7.48-7.48c0-4.13-3.34-7.48-7.48-7.48H269.3c-4.13,0-7.48,3.35-7.48,7.48
		C261.82,326.98,265.16,330.33,269.3,330.33L269.3,330.33z M269.3,330.33"/>
	<path d="M402.92,348.28h-63.82c-4.13,0-7.48,3.35-7.48,7.48c0,4.13,3.35,7.48,7.48,7.48h63.82c4.13,0,7.48-3.35,7.48-7.48
		C410.39,351.63,407.04,348.28,402.92,348.28L402.92,348.28z M402.92,348.28"/>
	<path d="M315.16,348.28h-21.94c-4.13,0-7.48,3.35-7.48,7.48c0,4.13,3.34,7.48,7.48,7.48h21.94c4.13,0,7.48-3.35,7.48-7.48
		C322.64,351.63,319.3,348.28,315.16,348.28L315.16,348.28z M315.16,348.28"/>
	<path d="M214.56,363.24h53.74c4.13,0,7.48-3.35,7.48-7.48c0-4.13-3.35-7.48-7.48-7.48h-53.74c-4.13,0-7.49,3.35-7.49,7.48
		C207.07,359.89,210.43,363.24,214.56,363.24L214.56,363.24z M214.56,363.24"/>
	<path d="M198.91,447h-50.38c-4.13,0-7.48,3.35-7.48,7.48c0,4.13,3.35,7.48,7.48,7.48h50.38c4.13,0,7.48-3.35,7.48-7.48
		C206.39,450.35,203.04,447,198.91,447L198.91,447z M198.91,447"/>
	<path d="M125.62,447h-38.7c-4.13,0-7.48,3.35-7.48,7.48c0,4.13,3.35,7.48,7.48,7.48h38.7c4.13,0,7.48-3.35,7.48-7.48
		C133.1,450.35,129.76,447,125.62,447L125.62,447z M125.62,447"/>
	<path d="M290.24,447h-65.81c-4.13,0-7.48,3.35-7.48,7.48c0,4.13,3.34,7.48,7.48,7.48h65.81c4.13,0,7.48-3.35,7.48-7.48
		C297.71,450.35,294.37,447,290.24,447L290.24,447z M290.24,447"/>
	<path d="M379.24,408.58h-35.99c-4.13,0-7.48,3.35-7.48,7.48c0,4.13,3.35,7.48,7.48,7.48h35.99c4.13,0,7.48-3.35,7.48-7.48
		C386.72,411.93,383.37,408.58,379.24,408.58L379.24,408.58z M379.24,408.58"/>
	<path d="M441.69,423.54h50.8c4.13,0,7.48-3.35,7.48-7.48c0-4.13-3.35-7.48-7.48-7.48h-50.8c-4.13,0-7.48,3.35-7.48,7.48
		C434.21,420.19,437.56,423.54,441.69,423.54L441.69,423.54z M441.69,423.54"/>
	<path d="M416.28,408.58h-11.64c-4.13,0-7.49,3.35-7.49,7.48c0,4.13,3.35,7.48,7.49,7.48h11.64c4.13,0,7.48-3.35,7.48-7.48
		C423.76,411.93,420.42,408.58,416.28,408.58L416.28,408.58z M416.28,408.58"/>
	<path d="M343.25,505.04h35.99c4.13,0,7.48-3.34,7.48-7.48c0-4.13-3.35-7.48-7.48-7.48h-35.99c-4.13,0-7.48,3.35-7.48,7.48
		C335.77,501.69,339.12,505.04,343.25,505.04L343.25,505.04z M343.25,505.04"/>
	<path d="M441.69,505.04h50.8c4.13,0,7.48-3.34,7.48-7.48c0-4.13-3.35-7.48-7.48-7.48h-50.8c-4.13,0-7.48,3.35-7.48,7.48
		C434.21,501.69,437.56,505.04,441.69,505.04L441.69,505.04z M441.69,505.04"/>
	<path d="M404.64,505.04h11.64c4.13,0,7.48-3.34,7.48-7.48c0-4.13-3.35-7.48-7.48-7.48h-11.64c-4.13,0-7.48,3.35-7.48,7.48
		C397.16,501.69,400.51,505.04,404.64,505.04L404.64,505.04z M404.64,505.04"/>
	<path d="M379.24,571.58h-35.99c-4.13,0-7.48,3.35-7.48,7.48c0,4.13,3.35,7.48,7.48,7.48h35.99c4.13,0,7.48-3.35,7.48-7.48
		C386.72,574.93,383.37,571.58,379.24,571.58L379.24,571.58z M379.24,571.58"/>
	<path d="M492.49,571.58h-50.8c-4.13,0-7.48,3.35-7.48,7.48c0,4.13,3.34,7.48,7.48,7.48h50.8c4.13,0,7.48-3.35,7.48-7.48
		C499.97,574.93,496.63,571.58,492.49,571.58L492.49,571.58z M492.49,571.58"/>
	<g>
		<defs>
			<rect id="SVGID_1_" x="42" y="165.89" width="511" height="511"/>
		</defs>
		<clipPath id="SVGID_2_">
			<use xlink:href="#SVGID_1_"  style="overflow:visible;"/>
		</clipPath>
		<path class="st0" d="M416.28,571.58h-11.64c-4.13,0-7.49,3.35-7.49,7.48c0,4.13,3.35,7.48,7.49,7.48h11.64
			c4.13,0,7.48-3.35,7.48-7.48C423.76,574.93,420.42,571.58,416.28,571.58L416.28,571.58z M416.28,571.58"/>
		<path class="st0" d="M520.09,166.89H74.92C56.77,166.89,42,181.65,42,199.8v361.86c0,18.15,14.77,32.91,32.92,32.91h28.14
			c4.13,0,7.48-3.34,7.48-7.48c0-4.13-3.35-7.48-7.48-7.48H74.92c-9.91,0-17.96-8.05-17.96-17.96v-28.37h272.46v12.89h-5.93
			c-8.11,0-14.71,6.59-14.71,14.71v18.73H148.53c-4.13,0-7.48,3.35-7.48,7.48c0,4.13,3.35,7.48,7.48,7.48h71.91v26.82h-22.58
			c-15.06,0-27.32,12.26-27.32,27.32v16.16c0,6.88,5.59,12.46,12.47,12.46h228.43c6.87,0,12.46-5.59,12.46-12.46v-16.16
			c0-15.06-12.25-27.32-27.32-27.32H374v-9.45h138.26c8.11,0,14.71-6.6,14.71-14.71v-3.52c14.57-3.38,25.47-16.46,25.47-32.05
			L553,199.8C553,181.65,538.24,166.89,520.09,166.89L520.09,166.89z M323.74,515.49v-35.85H512v35.85H323.74z M344.38,464.68
			v-15.73h146.98v15.73H344.38z M491.36,530.44v15.74H344.38v-15.74H491.36z M235.39,594.57h73.39v2.66
			c0,8.11,6.59,14.71,14.71,14.71h35.55v9.45H235.39V594.57z M396.58,636.36c6.81,0,12.36,5.54,12.36,12.35v13.67H185.49v-13.67
			c0-6.81,5.55-12.35,12.36-12.35H396.58z M512,596.98H323.74v-35.84H512V596.98z M537.48,561.66c0,7.24-4.32,13.48-10.51,16.32
			v-17.1c0-8.11-6.6-14.7-14.71-14.7h-5.93v-12.89h31.15V561.66z M537.48,518.34h-10.76c0.15-0.85,0.25-38.95,0.25-38.95
			c0-8.11-6.6-14.71-14.71-14.71h-5.93v-15.73h5.93c8.11,0,14.71-6.6,14.71-14.71v-36.35c0-8.11-6.6-14.71-14.71-14.71h-42.24
			c-4.13,0-7.48,3.35-7.48,7.48c0,4.13,3.34,7.48,7.48,7.48H512v35.85H323.74v-35.85h99.74c4.13,0,7.48-3.35,7.48-7.48
			c0-4.13-3.35-7.48-7.48-7.48h-99.98c-8.11,0-14.71,6.6-14.71,14.71v36.35c0,8.11,6.59,14.71,14.71,14.71h5.93v15.73h-5.93
			c-8.11,0-14.71,6.6-14.71,14.71c0,0,0.09,38.1,0.24,38.95H56.96V268.62h480.52V518.34z M537.48,253.66H57.51V199.8
			c0-9.9,8.05-17.95,17.96-17.95h444.05c9.9,0,17.96,8.06,17.96,17.96V253.66z M537.48,253.66"/>
	</g>
	<path d="M97.15,195.59c-12.1,0-21.95,9.84-21.95,21.95c0,12.1,9.84,21.95,21.95,21.95c12.1,0,21.95-9.85,21.95-21.95
		C119.1,205.44,109.25,195.59,97.15,195.59L97.15,195.59z M97.15,224.53c-3.85,0-6.99-3.13-6.99-6.99c0-3.85,3.14-6.99,6.99-6.99
		c3.86,0,6.99,3.14,6.99,6.99C104.14,221.39,101.01,224.53,97.15,224.53L97.15,224.53z M97.15,224.53"/>
	<path d="M153.03,195.59c-12.1,0-21.95,9.84-21.95,21.95c0,12.1,9.85,21.95,21.95,21.95c12.1,0,21.95-9.85,21.95-21.95
		C174.98,205.44,165.13,195.59,153.03,195.59L153.03,195.59z M153.03,224.53c-3.85,0-6.99-3.13-6.99-6.99
		c0-3.85,3.13-6.99,6.99-6.99c3.86,0,6.99,3.14,6.99,6.99C160.02,221.39,156.89,224.53,153.03,224.53L153.03,224.53z M153.03,224.53
		"/>
	<path d="M208.91,195.59c-12.1,0-21.94,9.84-21.94,21.95c0,12.1,9.84,21.95,21.94,21.95c12.1,0,21.95-9.85,21.95-21.95
		C230.86,205.44,221.01,195.59,208.91,195.59L208.91,195.59z M208.91,224.53c-3.86,0-6.99-3.13-6.99-6.99
		c0-3.85,3.14-6.99,6.99-6.99c3.86,0,6.99,3.14,6.99,6.99C215.9,221.39,212.77,224.53,208.91,224.53L208.91,224.53z M208.91,224.53"
		/>
</g>
</svg>
