<?xml version="1.0" encoding="utf-8"?>
<!-- Generator: Adobe Illustrator 23.0.1, SVG Export Plug-In . SVG Version: 6.00 Build 0)  -->
<svg version="1.1" id="Calque_1" xmlns="http://www.w3.org/2000/svg" xmlns:xlink="http://www.w3.org/1999/xlink" x="0px" y="0px"
	 viewBox="0 0 595.28 841.89" style="enable-background:new 0 0 595.28 841.89;" xml:space="preserve">
<style type="text/css">
	.st0{fill:#1D1D1B;}
</style>
<g>
	<path class="st0" d="M618.71,348.81c-6.19,0-11.28,7.06-11.28,15.74v94.02c0,8.69,5.09,15.76,11.28,15.76
		c6.27,0,11.29-7.07,11.29-15.76v-94.02C630,355.87,624.97,348.81,618.71,348.81L618.71,348.81z M618.71,348.81"/>
	<path class="st0" d="M-15.65,348.81c-6.27,0-11.35,7.06-11.35,15.74c0,24.1,0,69.86,0,94.02c0,8.69,5.09,15.69,11.35,15.76
		c6.19,0,11.28-7.07,11.28-15.76c0-24.09,0-69.91,0-94.02C-4.37,355.87-9.46,348.81-15.65,348.81L-15.65,348.81z M-15.65,348.81"/>
	<path class="st0" d="M123.55,206.26c-20.86,0-37.73,21.18-37.73,47.25c0,79,0,237.11,0,316.13c0,26.07,16.87,47.25,37.73,47.25
		c20.79,0,37.72-21.18,37.72-47.25V449.62h274.43v120.01c0,26.07,16.93,47.25,37.72,47.25c20.86,0,37.74-21.18,37.74-47.25V253.51
		c0-26.14-16.88-47.25-37.74-47.25c-20.79,0-37.72,21.11-37.72,47.25v119.94H161.28V253.44
		C161.28,227.38,144.35,206.26,123.55,206.26L123.55,206.26z M123.55,206.26"/>
	<path class="st0" d="M561.1,269.33h-3.68c-15.71,0-28.41,14.04-28.41,31.42v221.57c0,17.38,12.71,31.51,28.41,31.51h3.68
		c15.71,0,28.47-14.06,28.47-31.44c0-54.71,0-166.85,0-221.57C589.57,283.37,576.8,269.33,561.1,269.33L561.1,269.33z M561.1,269.33
		"/>
	<path class="st0" d="M41.46,269.33h-3.67c-15.71,0-28.47,14.04-28.47,31.42v221.57c0,17.45,12.77,31.51,28.47,31.51h3.67
		c15.71,0,28.41-14.06,28.41-31.44V300.82C69.94,283.37,57.17,269.33,41.46,269.33L41.46,269.33z M41.46,269.33"/>
</g>
</svg>
